<svg xmlns="http://www.w3.org/2000/svg" viewBox="0 0 1000 995.31"><title>Untitled-4</title><path d="M5.21,7.56H994.79V992.44H5.21Z" transform="translate(0 -2.35)" fill="#ffef38" fill-rule="evenodd"/><path d="M1000,997.65H0V2.35H1000ZM10.43,987.23H989.57V12.77H10.43Z" transform="translate(0 -2.35)" fill="#003da4"/><path d="M423.36,682.74l-80.82-54.22L726.8,369.4,489.57,209.85,378,284.93l86.55,57.35L264.86,475.76,97.5,365.22l403-268.5,399.9,267.46ZM575.08,315.17l80.81,54.23L271.64,628.52,509.38,788.06,621,713l-86.55-56.83L734.62,522.68,902,633.21l-404.07,268L99.06,634.78ZM261.73,794.84l-82.38-56.31L95.93,794.84l1,108.44ZM740.35,207.25l82.9,56.31,80.82-53.71V98.8Z" transform="translate(0 -2.35)" fill="#003da4" fill-rule="evenodd"/></svg>