<svg xmlns="http://www.w3.org/2000/svg" viewBox="0 0 999.53 435.08"><title>hipercard-29</title><path d="M274.86,267.92H171.27c-45.77,2.16-83.19,20.6-94,58.62-5.63,19.82-8.73,41.6-13.14,62.15C41.75,493.2,21.89,600.58.47,703H807c62.35,0,105.16-13.18,116.72-62.66,5.38-23,10.53-49,15.67-74.28,20-98.48,40.11-196.94,60.64-298.14Z" transform="translate(-0.47 -267.92)" fill="#822124"/><path d="M266.51,422.72c4.34-3,9.93-16.59,3.55-22.26-2-1.79-5.41-2.31-10.12-1.51-4.38.73-6.89,2.22-8.6,4.55-2.75,3.74-5.27,15-1,19.22S263.75,424.62,266.51,422.72ZM205,400.59c-3.12,20.24-6.63,40.07-10.15,59.9-22.62.24-45.7,1.11-67.51-.51,4.12-19.4,7.07-40,11.16-59.39H114.09c-8.72,49.49-16.65,99.76-26.39,148.22h24.87c3.9-24.86,7.55-50,12.69-73.6,21.2-.52,46.62-1.43,67,.51-4.2,24.56-9.28,48.24-13.2,73.09h24.87c8-50.21,16.42-100,26.4-148.22Zm350.41,41.84c-19.28-7.79-34.43,5.37-41.46,17.7,1.59-5.49,2.25-11.91,3.54-17.7H498.22c-4.7,36.43-11.62,70.64-18.2,105.18h21.75c3-20.5,4.36-48.14,11.12-67.76,5.4-15.67,19.54-29,40-21.74C553.12,452.32,554.78,447.91,555.36,442.43Zm12.16,81c-2-5.18-2.52-13.74-2-20.24,1.12-14.62,6.45-32.41,14.67-40.47,11.34-11.12,33.74-9.28,51.6-3,.55-6,1.76-11.39,2.53-17.2-29.29-4.78-57.09-1.8-71.83,13.66C548,471.25,538.58,506.05,545.26,528c7.83,25.62,42.92,27,71.33,17.2,1.26-5.15,1.93-10.89,3-16.19C604.1,537,574.42,541.22,567.52,523.4Zm244.33-80.46c-19.22-9.61-35.22,6.51-41.46,16.18,1.77-5,1.88-11.6,3.53-16.69H754.71Q746.94,496.61,736,547.61h22.25c.14-13.94,2.88-24.25,5.06-37.92,4.64-29.19,11.47-61.21,45.51-51.58,1.13-4.94,1.6-10.54,3-15.17Zm-567.71.68c-.58.09-.54.79-.5,1.5-4.73,35.43-11.15,69.18-18,102.49h21.64c5.23-36.07,11.21-71.38,18.71-105.18l-21.75,1.19Zm191.34-2.68c-15.72,1.21-29,5.73-38.45,15.68-11.58,12.2-21,39.17-18.21,63.74,3.92,35,47.56,33.79,82.46,25.3.6-6.16,2.09-11.41,3-17.2-14.38,5.38-39.34,12.88-54.14,3.54C399,524.94,399,507.06,402.6,491.53c23.45-.75,47.84-.61,71.33,0,1.49-11,5.75-23,2-33.9C471,443.27,453.41,439.55,435.48,440.94Zm20.74,38.54h-51.1A30.16,30.16,0,0,1,434,454.19c15.67-.6,26.89,5.75,22.26,25.29ZM352.93,443.62c-18.35-6.89-40.72,1.34-50.42,9.17,0,.34-.23.39-.52.42l.52-.42a.28.28,0,0,0,0-.09c.16-3.36,1.35-5.71,1.51-9.08H285.35c-7.77,51.74-17,102-26.72,151.81h21.68c3.14-19.39,5.21-39.84,9.58-58,5,19.1,37.29,15.45,50.94,8.07,28.15-15.23,49.87-87.69,12.1-101.88Zm-17.11,84.84c-11.64,12.32-40.25,12.14-42.49-8.61-1-9,2.38-18.48,4.05-27.82s2.89-18.52,4.55-26.81c11.46-14,45.15-15.69,48.56,7.59C353.46,493,345.46,518.25,335.82,528.46ZM892.78,397c-1.86,16.33-4.35,32-7.58,47-53.31-16.88-86,22.35-85.41,70.76.12,9.36,1.73,18.64,7.58,25.27,10.09,11.4,39,14.14,53.57,4.54,2.82-1.85,5.71-5.23,7.58-7.58,1.41-1.76,3.64-6.38,4.05-5-.77,5.13-1.92,9.88-2,15.66h19.71c3.8-54.49,15.54-101,24.25-150.6ZM844.24,536.55c-14.64.31-21.92-8.75-22.26-23.78-.58-26.32,11-55.55,34.41-58.18,10.91-1.22,18.81,1.32,26.81,4.05C875.86,488.2,878.51,535.81,844.24,536.55ZM656.56,442.39c-1.07,6-2.72,11.45-4,17.2,12.84-3.22,52.81-13.09,56.66,4,1.28,5.7-.93,11.74-2.53,16.19-36.14-3.42-65.6,2.58-73.35,28.33-5.19,17.25.58,34.22,11.63,39,21.29,9.12,47.19-1.33,56.16-15.68a65.36,65.36,0,0,0-1.52,16.18h18.72c.2-17.92,2.81-32.43,5.56-48.56,2.35-13.74,6.77-27.34,6.07-39.46-1.61-27.77-47.61-17.95-73.35-17.2ZM692,528c-11.21,11-42.68,14.09-39.46-12.14,2.67-21.79,26.4-26.42,52.1-23.28-1.91,11.92-4.1,27.06-12.64,35.42Z" transform="translate(-0.47 -267.92)" fill="#fff"/></svg>