<svg xmlns="http://www.w3.org/2000/svg" viewBox="0 0 978.75 970.58"><title>american-express-28</title><path d="M15,13.71H985.58v524l-48.07,75,48.07,66.84V984.29H15V490.39l30.07-34.54L15,422.86Z" transform="translate(-15 -13.71)" fill="#016fd0"/><path d="M203.37,690.05V537.68H364.7L382,560.25l17.9-22.57H985.58V679.54s-15.28,10.32-33,10.51H628.29l-19.56-24v24H544.8v-41s-8.75,5.74-27.63,5.74h-21.8v35.32H398.56l-17.32-23.06-17.51,23.06H203.37Z" transform="translate(-15 -13.71)" fill="#fff"/><path d="M15,422.86,51.39,338h63L135,385.5V338H213.2l12.26,34.34L237.33,338H588.49v17.22S607,338,637.24,338l113.94.38,20.33,46.9V338H837l18,27V338h66.07V490.39H855l-17.22-27.05v27.05H741.64l-9.63-24H706.13l-9.54,24H631.4c-26.08,0-42.81-16.93-42.81-16.93v16.93H490.12l-19.56-24v24H105l-9.63-24H69.59l-9.64,24H15Z" transform="translate(-15 -13.71)" fill="#fff"/><path d="M64.23,356.79l-49,114H47.11l9-22.86H108.8l9,22.86h32.69l-49-114Zm18.2,26.57,16,39.89H66.37Z" transform="translate(-15 -13.71)" fill="#016fd0"/><path d="M153.85,470.83v-114l45.44.2,26.37,73.56,25.78-73.76h45.05V470.93H268V386.86l-30.26,84.07h-25l-30.36-84.17v84.07Z" transform="translate(-15 -13.71)" fill="#016fd0"/><path d="M316.05,470.83v-114h93v25.5H344.85v19.56h62.76v24H344.85v20.24h64.22v24.81Z" transform="translate(-15 -13.71)" fill="#016fd0"/><path d="M425.61,356.79V470.93h28.51V430.35h12l34.25,40.58h34.83l-37.56-42a34.74,34.74,0,0,0,31.33-35c0-24-18.87-37-39.89-37l-63.44-.1Zm28.51,25.5h32.59c7.79,0,13.53,6.13,13.53,12,0,7.58-7.4,12-13.14,12h-33V382.29Z" transform="translate(-15 -13.71)" fill="#016fd0"/><path d="M569.71,470.83H540.62v-114h29.09Z" transform="translate(-15 -13.71)" fill="#016fd0"/><path d="M638.8,470.83h-6.33c-30.45,0-48.84-23.93-48.84-56.53,0-33.37,18.29-57.51,56.63-57.51h31.52v27H639.09c-15.57,0-26.66,12.17-26.66,30.75,0,22.09,12.65,31.33,30.74,31.33h7.5Z" transform="translate(-15 -13.71)" fill="#016fd0"/><path d="M700.87,356.79l-49,114.14h31.92l9-22.87h52.64l9,22.87h32.69l-49-114.14ZM719,383.36,735,423.25H702.92L719,383.36Z" transform="translate(-15 -13.71)" fill="#016fd0"/><path d="M790.39,470.83v-114h36.29L873,428.51V356.79h28.51V470.93H866.38L818.9,397.37v73.56H790.39Z" transform="translate(-15 -13.71)" fill="#016fd0"/><path d="M222.93,670.49v-114h93.12V582H251.83v19.56h62.76v24H251.83v20.24h64.22v24.71Z" transform="translate(-15 -13.71)" fill="#016fd0"/><path d="M679,670.49v-114H772.1V582H707.88v19.56h62.47v24H707.88v20.24H772.1v24.71Z" transform="translate(-15 -13.71)" fill="#016fd0"/><path d="M319.65,670.49,365,614.16l-46.41-57.7h35.9l27.64,35.71,27.73-35.71h34.54l-45.83,57,45.44,57H408.1l-26.86-35.12-26.17,35.12Z" transform="translate(-15 -13.71)" fill="#016fd0"/><path d="M447.41,556.46V670.59h29.28v-36h30.07c25.39,0,44.66-13.53,44.66-39.7,0-21.7-15.08-38.34-41-38.34h-63Zm29.28,25.78h31.63c8.17,0,14.1,5.06,14.1,13.14,0,7.59-5.83,13.13-14.2,13.13H476.69V582.24Z" transform="translate(-15 -13.71)" fill="#016fd0"/><path d="M563.68,556.46v114h28.51V629.92h12l34.25,40.57h34.83l-37.46-42a34.76,34.76,0,0,0,31.33-35c0-24-18.88-37-39.89-37ZM592.29,582h32.59c7.79,0,13.53,6.13,13.53,12,0,7.59-7.4,12-13.14,12h-33Z" transform="translate(-15 -13.71)" fill="#016fd0"/><path d="M785.33,670.49V645.68h57.12c8.46,0,12.06-4.57,12.06-9.53,0-4.77-3.6-9.64-12.06-9.64H816.66c-22.38,0-34.93-13.62-34.93-34.15,0-18.29,11.48-35.9,44.76-35.9h55.56l-12,25.68H822c-9.14,0-12,4.87-12,9.44,0,4.77,3.5,9.93,10.5,9.93H847.6c25,0,35.81,14.2,35.81,32.79,0,19.94-12.06,36.29-37.17,36.29H785.33Z" transform="translate(-15 -13.71)" fill="#016fd0"/><path d="M890.22,670.49V645.68h60.33c9,0,12.74-4.57,12.74-9.53,0-4.77-3.89-9.64-12.74-9.64H923.3c-23.64,0-36.87-13.62-36.87-34.15,0-18.29,12.06-35.9,47.29-35.9h58.67l-12.65,25.68H929c-9.73,0-12.65,4.87-12.65,9.44,0,4.77,3.7,9.93,11.09,9.93H955.9c26.37,0,37.85,14.2,37.85,32.79,0,19.94-12.75,36.29-39.31,36.29H890.22Z" transform="translate(-15 -13.71)" fill="#016fd0"/></svg>