<?xml version="1.0" encoding="utf-8"?>
<!-- Generator: Adobe Illustrator 27.0.1, SVG Export Plug-In . SVG Version: 6.00 Build 0)  -->
<svg version="1.1" id="Camada_1" xmlns="http://www.w3.org/2000/svg" xmlns:xlink="http://www.w3.org/1999/xlink" x="0px" y="0px"
	 viewBox="0 0 200 80" style="enable-background:new 0 0 200 80;" xml:space="preserve">
<path d="M194.14,32.89c-0.98,0.07-2.05,0.48-2.5,1.38c-0.55,1.08,0.32,2.21,1.06,2.95c0.21,0.21,0.56-0.1,0.35-0.31
	c-0.65-0.64-1.44-1.57-0.97-2.52c0.38-0.77,1.44-1.01,2.23-1.06c1.84-0.11,3.64,1.13,3.91,2.96c0.24,1.57-1.13,2.98-2.23,3.9
	c-1.32,1.12-2.9,1.96-4.49,2.65c-3.23,1.39-6.7,1.31-10.15,0.96c-2.56-0.26-5.11-0.68-7.68-0.9c-0.42-0.87-1.01-1.68-1.75-2.38
	c-2.08-2-5.01-2.97-7.88-3.08c-1.76-0.21-3.72,0.13-5.27,0.56c-2.11,0.58-4.25,1.54-5.99,2.84c-4.21,3.13-6.77,8.02-10.88,11.29
	c-2.05,1.64-4.44,2.92-6.86,3.95c-0.16,0.07-0.32,0.14-0.48,0.2c-0.16,0.07-0.32,0.13-0.49,0.19c-0.33,0.12-0.66,0.26-1.01,0.37
	c-0.34,0.11-0.69,0.23-1.04,0.35c-0.36,0.12-0.72,0.2-1.08,0.31c-1.47,0.4-3.04,0.74-4.72,0.93c-3.34,0.4-7.09,0.33-11.01-0.56
	c-1.96-0.44-3.96-1.1-5.95-1.99c-0.49-0.23-1-0.45-1.49-0.72c-0.25-0.12-0.5-0.25-0.75-0.38c-0.25-0.13-0.48-0.28-0.72-0.41
	c-0.95-0.57-1.88-1.21-2.77-1.95c-0.7-0.59-1.37-1.24-2-1.93c0.54-0.72,1.04-1.48,1.5-2.28c1.36-2.37,2.31-5.04,2.72-7.84
	c0.42-2.8,0.3-5.73-0.4-8.55c-0.35-1.41-0.84-2.79-1.46-4.12c-0.31-0.67-0.65-1.31-1.03-1.95c-0.38-0.65-0.83-1.26-1.29-1.85
	c-0.07-0.09-0.15-0.18-0.22-0.27c1.4-1.33,3.09-2.37,4.93-3.02c2.5-0.9,5.24-1.09,7.82-0.56c0.64,0.12,1.27,0.32,1.89,0.52
	c0.3,0.12,0.61,0.23,0.91,0.36c0.15,0.07,0.3,0.13,0.45,0.2l0.44,0.22c1.13,0.59,2.13,1.36,2.93,2.31c0.8,0.94,1.41,2.03,1.79,3.18
	c0.37,1.15,0.52,2.36,0.44,3.54c-0.08,1.18-0.39,2.33-0.88,3.37c-0.13,0.26-0.24,0.53-0.4,0.76c-0.07,0.12-0.14,0.24-0.22,0.36
	c-0.09,0.11-0.17,0.22-0.26,0.33c-0.05,0.06-0.08,0.11-0.13,0.17l-0.14,0.15c-0.1,0.1-0.19,0.2-0.29,0.3
	c-0.11,0.09-0.21,0.19-0.31,0.28l-0.16,0.13L120,36.36c-0.11,0.08-0.22,0.16-0.33,0.24c-0.12,0.07-0.24,0.14-0.35,0.21
	c-0.23,0.15-0.49,0.24-0.73,0.36c-0.51,0.2-1.03,0.36-1.56,0.43c-0.13,0.02-0.27,0.04-0.4,0.05c-0.13,0.01-0.26,0.01-0.4,0.02
	c-0.07,0-0.13,0.01-0.2,0.01l-0.2-0.01c-0.13-0.01-0.26-0.01-0.4-0.02c-0.13-0.01-0.26-0.03-0.39-0.05
	c-0.13-0.03-0.26-0.03-0.38-0.06c-0.13-0.03-0.25-0.06-0.38-0.09l-0.19-0.05l-0.18-0.06c-0.12-0.04-0.24-0.08-0.36-0.13
	c-0.12-0.04-0.23-0.1-0.35-0.15c-0.11-0.05-0.23-0.11-0.34-0.16c-0.11-0.06-0.21-0.12-0.32-0.18c-0.41-0.26-0.77-0.58-1.07-0.94
	c-0.59-0.73-0.94-1.62-1-2.51c-0.07-0.88,0.16-1.75,0.55-2.47c0.4-0.71,1.08-1.22,1.8-1.44c0.73-0.22,1.5-0.16,2.14,0.1
	c0.32,0.14,0.61,0.3,0.83,0.54c0.22,0.23,0.38,0.5,0.48,0.78c0.2,0.57,0.13,1.16-0.1,1.62c-0.21,0.47-0.66,0.76-1.08,0.83
	c-0.42,0.08-0.82-0.02-1.1-0.2c-0.28-0.18-0.41-0.45-0.45-0.68c-0.02-0.06-0.02-0.11-0.02-0.16c0.01-0.05,0-0.1,0.01-0.14
	c0.02-0.08,0.03-0.15,0.05-0.21c0.04-0.1,0.07-0.16,0.07-0.16s-0.02,0.06-0.07,0.16c-0.03,0.05-0.03,0.13-0.06,0.21
	c-0.01,0.05,0,0.09-0.01,0.15c-0.01,0.05-0.01,0.1,0.01,0.16c0.03,0.23,0.16,0.52,0.44,0.72c0.28,0.21,0.7,0.33,1.15,0.26
	c0.45-0.07,0.95-0.36,1.2-0.86c0.27-0.49,0.37-1.13,0.17-1.76c-0.09-0.32-0.26-0.62-0.5-0.89c-0.23-0.27-0.56-0.48-0.9-0.63
	c-0.69-0.3-1.54-0.41-2.37-0.19c-0.83,0.21-1.62,0.76-2.11,1.56c-0.23,0.4-0.43,0.82-0.55,1.29c-0.12,0.46-0.19,0.95-0.17,1.45
	c0.02,1,0.38,2.02,1.03,2.89c0.34,0.43,0.74,0.82,1.21,1.13c0.12,0.07,0.24,0.15,0.36,0.23c0.13,0.06,0.25,0.13,0.38,0.19
	c0.13,0.06,0.25,0.13,0.38,0.18c0.13,0.05,0.27,0.1,0.4,0.15l0.2,0.08l0.21,0.06c0.14,0.04,0.28,0.08,0.42,0.12
	c0.14,0.04,0.29,0.05,0.43,0.08c0.15,0.02,0.29,0.05,0.44,0.07c0.15,0.01,0.3,0.02,0.44,0.03l0.22,0.02c0.07,0,0.15,0,0.22,0
	c0.15,0,0.3-0.01,0.45-0.01c0.15-0.01,0.3-0.03,0.45-0.05c0.61-0.06,1.21-0.22,1.79-0.43c0.28-0.13,0.59-0.23,0.86-0.39
	c0.14-0.08,0.28-0.15,0.42-0.23c0.13-0.08,0.26-0.18,0.4-0.26l0.2-0.13l0.18-0.15c0.12-0.1,0.25-0.2,0.37-0.31
	c0.11-0.11,0.23-0.23,0.34-0.34l0.17-0.17c0.06-0.06,0.1-0.12,0.16-0.18c0.1-0.13,0.2-0.25,0.31-0.38c0.1-0.13,0.18-0.27,0.27-0.4
	c0.19-0.27,0.33-0.56,0.48-0.84c0.59-1.15,0.98-2.42,1.11-3.75c0.13-1.33,0.01-2.71-0.38-4.03c-0.39-1.32-1.05-2.6-1.94-3.71
	c-0.9-1.12-2.04-2.06-3.32-2.77l-0.48-0.25c-0.16-0.09-0.33-0.16-0.49-0.24c-0.33-0.16-0.67-0.29-1-0.43
	c-0.68-0.25-1.38-0.49-2.1-0.65c-2.87-0.67-5.98-0.54-8.83,0.41c-2.1,0.7-4.07,1.84-5.71,3.33c-1.65-1.49-3.61-2.63-5.71-3.33
	c-2.86-0.96-5.97-1.09-8.83-0.41c-0.72,0.16-1.42,0.39-2.1,0.65c-0.34,0.14-0.68,0.27-1,0.43c-0.16,0.08-0.33,0.15-0.49,0.24
	l-0.47,0.25c-1.29,0.71-2.43,1.65-3.33,2.77c-0.9,1.11-1.55,2.39-1.94,3.71c-0.39,1.32-0.51,2.7-0.38,4.03
	c0.13,1.33,0.52,2.61,1.1,3.75c0.16,0.29,0.29,0.57,0.48,0.84c0.09,0.13,0.17,0.27,0.27,0.4c0.1,0.13,0.2,0.25,0.31,0.38
	c0.05,0.06,0.1,0.13,0.16,0.18l0.17,0.17c0.11,0.12,0.23,0.23,0.34,0.34c0.13,0.1,0.25,0.2,0.37,0.31l0.19,0.15l0.2,0.13
	c0.13,0.09,0.27,0.18,0.39,0.26c0.14,0.08,0.28,0.16,0.42,0.23c0.27,0.16,0.57,0.26,0.85,0.39c0.59,0.21,1.18,0.37,1.79,0.43
	c0.15,0.02,0.3,0.04,0.45,0.05c0.15,0,0.3,0.01,0.45,0.01c0.08,0,0.15,0,0.23,0l0.22-0.02c0.15-0.01,0.3-0.02,0.45-0.03
	c0.15-0.02,0.29-0.05,0.43-0.07c0.15-0.03,0.29-0.04,0.43-0.08c0.14-0.04,0.28-0.08,0.42-0.12l0.21-0.06l0.2-0.08
	c0.13-0.05,0.27-0.1,0.4-0.15c0.13-0.05,0.26-0.12,0.38-0.18c0.13-0.07,0.25-0.13,0.38-0.19c0.12-0.08,0.24-0.15,0.36-0.23
	c0.47-0.32,0.87-0.7,1.21-1.13c0.66-0.87,1.01-1.89,1.03-2.89c0.03-0.5-0.05-0.99-0.17-1.45c-0.11-0.47-0.32-0.89-0.55-1.29
	c-0.49-0.8-1.28-1.35-2.11-1.56c-0.83-0.22-1.68-0.12-2.37,0.19c-0.34,0.16-0.67,0.36-0.9,0.63c-0.24,0.27-0.41,0.57-0.51,0.89
	c-0.19,0.63-0.09,1.27,0.17,1.76c0.25,0.5,0.75,0.8,1.2,0.86c0.46,0.07,0.88-0.05,1.15-0.26c0.29-0.2,0.42-0.49,0.44-0.72
	c0.01-0.06,0.01-0.11,0.01-0.16c0-0.05,0.01-0.1-0.01-0.15c-0.03-0.08-0.03-0.16-0.06-0.21c-0.05-0.1-0.07-0.16-0.07-0.16
	s0.03,0.06,0.07,0.16c0.03,0.06,0.03,0.13,0.05,0.21c0.01,0.04,0,0.09,0,0.14c0,0.05,0,0.1-0.02,0.16
	c-0.03,0.22-0.17,0.49-0.45,0.68c-0.27,0.19-0.67,0.28-1.1,0.2c-0.42-0.08-0.86-0.36-1.08-0.83c-0.23-0.46-0.3-1.05-0.1-1.62
	c0.1-0.28,0.26-0.55,0.48-0.78c0.22-0.23,0.5-0.4,0.83-0.54c0.64-0.26,1.4-0.32,2.13-0.1c0.73,0.22,1.4,0.73,1.8,1.44
	c0.4,0.72,0.63,1.59,0.56,2.47c-0.05,0.88-0.4,1.77-0.99,2.51c-0.3,0.36-0.67,0.68-1.08,0.94c-0.1,0.06-0.21,0.12-0.31,0.18
	c-0.12,0.05-0.23,0.11-0.35,0.16c-0.12,0.05-0.22,0.12-0.35,0.15c-0.12,0.04-0.24,0.08-0.36,0.13l-0.18,0.06l-0.19,0.05
	c-0.12,0.03-0.25,0.06-0.37,0.09c-0.13,0.03-0.26,0.04-0.39,0.06c-0.13,0.01-0.26,0.04-0.39,0.05c-0.13,0.01-0.26,0.01-0.4,0.02
	l-0.2,0.01c-0.07,0-0.13-0.01-0.2-0.01c-0.13-0.01-0.26-0.01-0.39-0.02c-0.13-0.01-0.27-0.04-0.4-0.05
	c-0.53-0.07-1.05-0.23-1.56-0.43c-0.25-0.12-0.51-0.21-0.73-0.36c-0.12-0.07-0.24-0.14-0.36-0.21c-0.11-0.08-0.22-0.16-0.34-0.24
	l-0.17-0.12l-0.16-0.13c-0.1-0.09-0.21-0.18-0.31-0.28c-0.1-0.1-0.19-0.2-0.28-0.3l-0.14-0.15c-0.05-0.05-0.09-0.11-0.13-0.17
	c-0.09-0.11-0.17-0.22-0.25-0.33c-0.08-0.11-0.15-0.24-0.23-0.36c-0.16-0.23-0.27-0.5-0.39-0.76c-0.49-1.04-0.8-2.19-0.88-3.37
	c-0.08-1.18,0.07-2.39,0.44-3.54c0.38-1.15,0.98-2.24,1.79-3.18c0.8-0.94,1.8-1.72,2.93-2.31l0.44-0.22
	c0.15-0.07,0.29-0.13,0.45-0.2c0.29-0.13,0.6-0.24,0.91-0.36c0.62-0.21,1.25-0.4,1.89-0.52c2.57-0.54,5.32-0.35,7.81,0.56
	c1.84,0.66,3.52,1.7,4.93,3.02c-0.08,0.09-0.15,0.18-0.23,0.27c-0.46,0.59-0.91,1.2-1.29,1.85c-0.38,0.64-0.72,1.28-1.03,1.95
	c-0.62,1.32-1.11,2.71-1.46,4.12c-0.69,2.82-0.82,5.75-0.4,8.55c0.42,2.8,1.36,5.47,2.72,7.84c0.46,0.8,0.96,1.56,1.5,2.28
	c-0.63,0.7-1.3,1.34-2,1.93c-0.88,0.74-1.82,1.38-2.77,1.95c-0.24,0.14-0.48,0.28-0.72,0.41c-0.25,0.13-0.49,0.26-0.74,0.38
	c-0.49,0.27-0.99,0.49-1.49,0.72c-1.99,0.89-3.99,1.55-5.95,1.99c-3.93,0.89-7.67,0.96-11.01,0.56c-1.67-0.19-3.24-0.54-4.72-0.93
	c-0.37-0.11-0.73-0.19-1.09-0.31c-0.35-0.12-0.7-0.24-1.04-0.35c-0.35-0.11-0.67-0.25-1.01-0.37c-0.16-0.06-0.32-0.12-0.49-0.19
	c-0.16-0.06-0.32-0.13-0.47-0.2c-2.42-1.03-4.81-2.31-6.86-3.95c-4.11-3.28-6.68-8.17-10.89-11.29c-1.75-1.3-3.88-2.26-5.99-2.84
	c-1.56-0.43-3.51-0.78-5.27-0.56c-2.87,0.11-5.8,1.08-7.88,3.08c-0.73,0.7-1.32,1.51-1.74,2.38c-2.57,0.22-5.12,0.65-7.68,0.9
	c-3.45,0.35-6.92,0.43-10.15-0.96c-1.6-0.69-3.17-1.53-4.5-2.65c-1.1-0.93-2.47-2.33-2.23-3.9c0.28-1.83,2.07-3.06,3.91-2.96
	c0.79,0.04,1.84,0.29,2.22,1.06c0.48,0.95-0.31,1.89-0.97,2.52c-0.21,0.21,0.14,0.51,0.35,0.31c0.74-0.73,1.6-1.87,1.06-2.95
	c-0.46-0.9-1.53-1.32-2.5-1.38c-2.28-0.15-4.97,1.61-4.57,4.13c0.38,2.41,2.79,4.13,4.78,5.27c2.24,1.29,4.58,2.15,7.18,2.32
	c3.87,0.25,7.7-0.47,11.53-0.89c0.41-0.05,0.84-0.09,1.26-0.13c-0.53,1.42-0.64,2.98-0.23,4.52c0.94,3.51,3.79,6.64,7.1,8.2
	c2.85,1.35,7.41,1.67,9.16-1.58c1.46-2.72,0-6.22-2-8.29c-2.49-2.57-6.31-3.58-9.82-3.69c-0.93-0.03-1.86,0-2.79,0.05
	c1.14-1.94,3.23-3.35,5.42-4.02c3.63-1.12,7.82-0.7,11.11,1.19c5.7,3.29,8.9,9.35,13.84,13.5c1.7,1.43,3.81,2.86,6.4,4.13
	c0.16,0.08,0.33,0.17,0.49,0.24c0.17,0.07,0.34,0.15,0.51,0.22c0.34,0.15,0.68,0.31,1.04,0.45c0.36,0.13,0.72,0.27,1.09,0.42
	c0.37,0.14,0.75,0.25,1.13,0.38c1.54,0.49,3.2,0.92,4.98,1.18c3.55,0.54,7.58,0.58,11.83-0.32c2.12-0.45,4.29-1.13,6.44-2.08
	c0.54-0.24,1.08-0.47,1.61-0.76c0.26-0.14,0.54-0.27,0.8-0.41c0.27-0.14,0.54-0.31,0.81-0.46c1.07-0.63,2.12-1.36,3.1-2.18
	c0.69-0.58,1.35-1.21,1.98-1.89c0.63,0.67,1.29,1.31,1.98,1.89c0.98,0.83,2.03,1.55,3.1,2.18c0.27,0.15,0.53,0.32,0.81,0.46
	c0.27,0.14,0.54,0.27,0.8,0.41c0.53,0.29,1.08,0.52,1.61,0.76c2.16,0.95,4.33,1.63,6.45,2.08c4.25,0.9,8.28,0.86,11.83,0.32
	c1.78-0.27,3.44-0.7,4.98-1.18c0.38-0.13,0.76-0.24,1.13-0.38c0.37-0.14,0.73-0.28,1.08-0.42c0.36-0.14,0.7-0.3,1.04-0.45
	c0.17-0.08,0.34-0.15,0.5-0.22c0.17-0.07,0.33-0.16,0.49-0.24c2.59-1.27,4.71-2.7,6.41-4.13c4.93-4.15,8.14-10.21,13.84-13.5
	c3.28-1.89,7.47-2.31,11.1-1.19c2.19,0.68,4.28,2.08,5.43,4.02c-0.92-0.05-1.85-0.08-2.79-0.05c-3.51,0.1-7.33,1.12-9.82,3.69
	c-2,2.07-3.46,5.57-2,8.29c1.75,3.25,6.31,2.93,9.16,1.58c3.31-1.56,6.16-4.69,7.1-8.2c0.41-1.55,0.3-3.11-0.23-4.52
	c0.43,0.04,0.85,0.08,1.27,0.13c3.83,0.42,7.66,1.14,11.53,0.89c2.6-0.17,4.93-1.03,7.18-2.32c2-1.14,4.4-2.86,4.78-5.27
	C199.11,34.5,196.43,32.74,194.14,32.89z M36.1,44.7c3.05,1.39,6.15,4.63,5.5,8.25c-0.32,1.79-1.74,2.9-3.51,3.27
	c-1.96,0.41-3.99-0.23-5.67-1.23c-3.15-1.88-6.2-5.44-5.97-9.28c0.05-0.79,0.24-1.53,0.54-2.21C30.09,43.29,33.26,43.41,36.1,44.7z
	 M98.98,47.01c-1.22-2.1-2.1-4.49-2.5-7c-0.41-2.5-0.34-5.14,0.25-7.69c0.29-1.27,0.71-2.53,1.25-3.74c0.27-0.61,0.57-1.2,0.89-1.77
	c0.31-0.56,0.68-1.09,1.07-1.6c0.38,0.51,0.76,1.04,1.07,1.6c0.32,0.57,0.63,1.17,0.9,1.77c0.54,1.21,0.96,2.47,1.25,3.74
	c0.59,2.55,0.65,5.19,0.25,7.69c-0.4,2.51-1.28,4.9-2.5,7c-0.3,0.51-0.62,1.01-0.96,1.49C99.59,48.02,99.27,47.52,98.98,47.01z
	 M167.45,54.99c-1.68,1-3.71,1.64-5.67,1.23c-1.77-0.37-3.19-1.48-3.51-3.27c-0.65-3.62,2.46-6.86,5.51-8.25
	c2.83-1.3,6.01-1.42,9.1-1.2c0.3,0.68,0.5,1.42,0.55,2.21C173.65,49.55,170.61,53.1,167.45,54.99z"/>
</svg>
